<svg xmlns="http://www.w3.org/2000/svg" xmlns:xlink="http://www.w3.org/1999/xlink" id="Layer_1" width="100" height="100" x="0" style="enable-background:new 0 0 100 100" y="0" version="1.1" viewBox="0 0 100 100" xml:space="preserve"><g><linearGradient id="SVGID_1_" x1="32.334" x2="32.334" y1="95.702" y2="5.269" gradientUnits="userSpaceOnUse"><stop offset="0" style="stop-color:#ffde17"/><stop offset=".08" style="stop-color:#ffd210"/><stop offset=".177" style="stop-color:#fec90d"/><stop offset=".281" style="stop-color:#fdc70c"/><stop offset=".668" style="stop-color:#f3903f"/><stop offset=".888" style="stop-color:#ed683c"/><stop offset="1" style="stop-color:#e93e3a"/></linearGradient><path style="fill:url(#SVGID_1_)" d="M48.173,57.757V39.825c0-1.302,1.055-2.357,2.357-2.357h9.691 c0.897,0,1.346-1.084,0.712-1.718L34.112,0.737c-0.982-0.982-2.574-0.982-3.556,0L3.735,35.75 c-0.634,0.634-0.185,1.718,0.712,1.718h9.691c1.302,0,2.357,1.055,2.357,2.357v17.932c0,0.958,0.776,1.734,1.734,1.734h28.21 C47.397,59.491,48.173,58.715,48.173,57.757z"/><linearGradient id="SVGID_2_" x1="67.666" x2="67.666" y1="94.171" y2="3.738" gradientUnits="userSpaceOnUse"><stop offset="0" style="stop-color:#ffde17"/><stop offset=".08" style="stop-color:#ffd210"/><stop offset=".177" style="stop-color:#fec90d"/><stop offset=".281" style="stop-color:#fdc70c"/><stop offset=".668" style="stop-color:#f3903f"/><stop offset=".888" style="stop-color:#ed683c"/><stop offset="1" style="stop-color:#e93e3a"/></linearGradient><path style="fill:url(#SVGID_2_)" d="M95.553,62.532h-9.691c-1.302,0-2.357-1.055-2.357-2.357V42.243 c0-0.958-0.776-1.734-1.734-1.734h-28.21c-0.958,0-1.734,0.776-1.734,1.734v17.932c0,1.302-1.055,2.357-2.357,2.357h-9.691 c-0.897,0-1.346,1.084-0.712,1.718l26.821,35.013c0.982,0.982,2.574,0.982,3.556,0L96.265,64.25 C96.898,63.616,96.45,62.532,95.553,62.532z"/></g></svg>